HIERARCHY
ROOT Hips
{
	OFFSET -0.001795 -0.223333 0.028219
	CHANNELS 6 Xposition Yposition Zposition Zrotation Yrotation Xrotation 
	JOINT LeftUpLeg
	{
		OFFSET 0.069520 -0.091406 -0.006815
		CHANNELS 3 Zrotation Yrotation Xrotation
		JOINT LeftLeg
		{
			OFFSET 0.034277 -0.375199 -0.004496
			CHANNELS 3 Zrotation Yrotation Xrotation
			JOINT LeftFoot
			{
				OFFSET -0.013596 -0.397961 -0.043693
				CHANNELS 3 Zrotation Yrotation Xrotation
				JOINT LeftToe
				{
					OFFSET 0.026358 -0.055791 0.119288
					CHANNELS 3 Zrotation Yrotation Xrotation
					End Site
					{
						OFFSET 0.000000 0.000000 0.000000
					}
				}
			}
		}
	}
	JOINT RightUpLeg
	{
		OFFSET -0.067670 -0.090522 -0.004320
		CHANNELS 3 Zrotation Yrotation Xrotation
		JOINT RightLeg
		{
			OFFSET -0.038290 -0.382569 -0.008850
			CHANNELS 3 Zrotation Yrotation Xrotation
			JOINT RightFoot
			{
				OFFSET 0.015774 -0.398415 -0.042312
				CHANNELS 3 Zrotation Yrotation Xrotation
				JOINT RightToe
				{
					OFFSET -0.025372 -0.048144 0.123348
					CHANNELS 3 Zrotation Yrotation Xrotation
					End Site
					{
						OFFSET 0.000000 0.000000 0.000000
					}
				}
			}
		}
	}
	JOINT Spine
	{
		OFFSET -0.002533 0.108963 -0.026696
		CHANNELS 3 Zrotation Yrotation Xrotation
		JOINT Spine1
		{
			OFFSET 0.005487 0.135180 0.001092
			CHANNELS 3 Zrotation Yrotation Xrotation
			JOINT Spine2
			{
				OFFSET 0.001457 0.052922 0.025425
				CHANNELS 3 Zrotation Yrotation Xrotation
				JOINT Neck
				{
					OFFSET -0.002778 0.213870 -0.042857
					CHANNELS 3 Zrotation Yrotation Xrotation
					JOINT Head
					{
						OFFSET 0.005152 0.064970 0.051349
						CHANNELS 3 Zrotation Yrotation Xrotation
						End Site
						{
							OFFSET 0.000000 0.000000 0.000000
						}
					}
				}
				JOINT LeftShoulder
				{
					OFFSET 0.078845 0.121749 -0.034090
					CHANNELS 3 Zrotation Yrotation Xrotation
					JOINT LeftArm
					{
						OFFSET 0.090977 0.030469 -0.008868
						CHANNELS 3 Zrotation Yrotation Xrotation
						JOINT LeftForeArm
						{
							OFFSET 0.259612 -0.012772 -0.027456
							CHANNELS 3 Zrotation Yrotation Xrotation
							JOINT LeftHand
							{
								OFFSET 0.249234 0.008986 -0.001171
								CHANNELS 3 Zrotation Yrotation Xrotation
								End Site
								{
									OFFSET 0.000000 0.000000 0.000000
								}
							}
						}
					}
				}
				JOINT RightShoulder
				{
					OFFSET -0.081759 0.118833 -0.038615
					CHANNELS 3 Zrotation Yrotation Xrotation
					JOINT RightArm
					{
						OFFSET -0.096012 0.032551 -0.009143
						CHANNELS 3 Zrotation Yrotation Xrotation
						JOINT RightForeArm
						{
							OFFSET -0.253742 -0.013329 -0.021401
							CHANNELS 3 Zrotation Yrotation Xrotation
							JOINT RightHand
							{
								OFFSET -0.255298 0.007772 -0.005559
								CHANNELS 3 Zrotation Yrotation Xrotation
								End Site
								{
									OFFSET 0.000000 0.000000 0.000000
								}
							}
						}
					}
				}
			}
		}
	}
}
MOTION
Frames: 13
Frame Time: 0.050000
0.000000 0.929992 0.000000 0.348964 -3.142200 2.544592 4.275314 0.014798 1.114391 -3.846285 0.446424 -1.519270 4.830675 11.134338 5.219791 0.000000 0.000000 0.000000 -4.085976 0.314598 -2.658082 4.906292 -0.478852 1.728120 -4.057866 -11.137685 3.755421 0.000000 0.000000 0.000000 7.841527 -0.389382 2.507976 -6.084440 2.168549 -18.617053 -2.515112 6.325960 26.116618 9.976898 -3.207626 -27.526154 0.000000 0.000000 0.000000 -28.089434 -10.646899 3.378194 -45.274803 0.418829 -6.940195 6.201071 -21.731792 -0.277872 0.000000 0.000000 0.000000 33.336431 -0.074615 -0.445979 49.530884 7.352138 -4.637923 -5.046175 23.226394 0.324875 0.000000 0.000000 0.000000 
-0.000303 0.930412 0.000275 0.080222 -2.887033 2.767798 5.068446 0.025370 1.745985 -4.642362 0.515811 -3.091512 4.562667 10.725450 5.674458 0.000000 0.000000 0.000000 -3.750632 0.333301 -3.010203 4.907768 -0.482781 2.025864 -4.139520 -11.372200 3.983541 0.000000 0.000000 0.000000 8.613173 -0.308432 1.517118 -6.611864 2.350565 -17.961095 -3.463924 6.370017 25.870149 11.367225 -3.577216 -29.605681 0.000000 0.000000 0.000000 -27.272039 -10.357223 3.121131 -46.217158 0.591158 -7.139495 8.245867 -20.989133 -0.632257 0.000000 0.000000 0.000000 33.521381 -0.519037 -0.670359 50.788132 6.830980 -4.927150 -5.614907 24.199815 0.277288 0.000000 0.000000 0.000000 
-0.000411 0.930159 0.000203 0.123504 -2.307539 2.869516 5.203716 -0.012843 1.202922 -4.825330 0.530357 -2.484842 4.361473 10.324481 5.398662 0.000000 0.000000 0.000000 -3.701927 0.329665 -3.011251 4.847499 -0.483543 1.945426 -4.382826 -11.890242 3.968709 0.000000 0.000000 0.000000 9.086375 -0.312787 1.401894 -7.389615 2.564476 -18.699173 -3.330837 5.170557 27.273585 10.330249 -3.145525 -29.940279 0.000000 0.000000 0.000000 -26.732168 -10.285051 3.509575 -47.227573 -0.199493 -7.249835 9.707120 -20.164158 -0.799737 0.000000 0.000000 0.000000 32.716645 -0.120592 -0.673891 51.499999 6.834060 -4.974064 -4.860111 23.486674 0.381670 0.000000 0.000000 0.000000 
-0.000449 0.931314 -0.000009 0.206124 -1.859783 2.976068 5.336573 -0.026751 1.117697 -5.117120 0.549657 -2.713038 4.063547 9.883346 5.854322 0.000000 0.000000 0.000000 -3.561580 0.348524 -3.337050 4.506052 -0.449158 2.375683 -4.550165 -12.324398 4.322616 0.000000 0.000000 0.000000 9.177176 -0.255643 0.865219 -7.806299 2.703931 -18.506620 -3.447273 5.487729 27.483068 10.956055 -3.342860 -30.259727 0.000000 0.000000 0.000000 -27.098489 -11.053336 3.743465 -46.562686 1.024894 -7.498907 10.197249 -20.911471 -0.951601 0.000000 0.000000 0.000000 33.939836 -0.310975 -0.561888 50.830600 6.892489 -5.041193 -5.109749 23.542014 0.366974 0.000000 0.000000 0.000000 
-0.000291 0.931604 -0.000466 0.036647 -1.630942 2.980931 5.464719 -0.052307 0.683392 -4.978941 0.540869 -2.056085 4.021359 9.785762 5.703653 0.000000 0.000000 0.000000 -3.392038 0.359484 -3.524203 4.555061 -0.457726 2.698416 -4.628962 -12.523399 4.486808 0.000000 0.000000 0.000000 8.832627 -0.252545 0.890064 -7.179277 2.544857 -18.014179 -3.653291 5.542806 27.131215 11.069847 -3.396521 -30.016604 0.000000 0.000000 0.000000 -27.482827 -10.595239 3.327309 -46.365300 1.036809 -7.398136 10.080333 -22.083588 -0.999360 0.000000 0.000000 0.000000 33.643431 0.070410 -0.178784 50.958213 7.261652 -4.881905 -5.205630 22.282888 0.318874 0.000000 0.000000 0.000000 
0.000135 0.931993 -0.000876 -0.150535 -1.322563 3.075822 5.388247 -0.060338 0.588229 -4.466008 0.487460 -2.196282 3.915873 9.604902 5.707337 0.000000 0.000000 0.000000 -3.477512 0.378051 -3.802991 5.072126 -0.527697 3.012753 -4.711137 -12.753985 4.788658 0.000000 0.000000 0.000000 8.738281 -0.249318 0.838905 -7.271926 2.573880 -18.094740 -3.603668 5.559057 27.279003 10.837878 -3.291830 -29.751164 0.000000 0.000000 0.000000 -27.324252 -10.706946 3.322606 -46.282204 0.981542 -7.359890 9.384887 -22.480946 -0.895573 0.000000 0.000000 0.000000 33.705316 0.151932 -0.014525 50.920417 7.307416 -4.908632 -4.942832 21.997093 0.361131 0.000000 0.000000 0.000000 
0.000887 0.932860 -0.001096 -0.193474 -0.966858 3.081187 5.400415 -0.082057 0.208527 -4.414377 0.481706 -1.667817 3.758916 9.352749 5.791211 0.000000 0.000000 0.000000 -3.503448 0.390592 -4.014096 5.164324 -0.546883 3.410150 -4.822336 -13.048546 5.159088 0.000000 0.000000 0.000000 8.533742 -0.243895 0.814526 -7.356543 2.623137 -17.723463 -3.474468 5.507758 26.972683 11.120964 -3.446013 -29.539904 0.000000 0.000000 0.000000 -27.429545 -10.439948 3.051634 -45.906866 0.792623 -7.174860 9.145560 -23.275705 -0.896446 0.000000 0.000000 0.000000 33.574425 0.160587 0.066951 50.781883 7.517694 -4.804256 -4.799952 21.772471 0.377049 0.000000 0.000000 0.000000 
0.001665 0.933345 -0.001050 -0.281063 -0.648379 3.295010 5.234813 -0.100775 -0.123091 -3.979414 0.436300 -1.581999 3.650407 9.172740 5.813173 0.000000 0.000000 0.000000 -3.493631 0.402155 -4.184006 5.272610 -0.565756 3.346881 -4.916576 -13.297139 5.493090 0.000000 0.000000 0.000000 8.300837 -0.206900 0.468667 -7.368951 2.630542 -17.684942 -3.321480 5.576955 27.198203 11.137014 -3.598906 -28.562841 0.000000 0.000000 0.000000 -27.429421 -10.800033 3.182905 -45.440688 0.633541 -7.031819 8.887192 -23.975294 -0.888602 0.000000 0.000000 0.000000 33.765075 0.191072 0.231371 50.325731 7.806432 -4.745600 -4.505873 22.209850 0.444962 0.000000 0.000000 0.000000 
0.002294 0.933875 -0.000952 -0.395843 -0.576978 3.629261 5.097717 -0.115304 -0.381729 -3.576867 0.397135 -1.789936 3.628049 9.172015 5.971861 0.000000 0.000000 0.000000 -3.499537 0.419229 -4.396582 5.436872 -0.585866 3.074701 -4.899966 -13.319781 5.850981 0.000000 0.000000 0.000000 8.130382 -0.175921 0.144423 -7.418818 2.636111 -17.842265 -3.187886 5.804699 27.279726 11.239461 -3.656696 -28.337713 0.000000 0.000000 0.000000 -27.246716 -10.842056 3.113113 -45.234934 0.438490 -6.908860 9.062654 -24.193194 -0.948032 0.000000 0.000000 0.000000 33.754996 0.021987 0.239636 50.128400 7.777890 -4.792907 -4.418126 22.640034 0.483233 0.000000 0.000000 0.000000 
0.002532 0.933912 -0.000920 -0.424777 -0.394627 3.848640 5.193766 -0.128185 -0.527516 -3.682849 0.405556 -2.009058 3.540429 9.030792 6.017790 0.000000 0.000000 0.000000 -3.378411 0.433885 -4.586333 5.278469 -0.567338 3.020759 -4.984280 -13.502465 5.927820 0.000000 0.000000 0.000000 7.923066 -0.159162 -0.029381 -7.548477 2.666626 -18.036677 -3.072138 5.875836 27.511027 11.551176 -3.834432 -28.231730 0.000000 0.000000 0.000000 -27.084324 -10.771916 3.014295 -44.676850 0.048065 -6.689445 9.308968 -24.145329 -1.008819 0.000000 0.000000 0.000000 33.844353 0.107633 0.396216 49.820660 7.893586 -4.781910 -4.258002 23.335632 0.538050 0.000000 0.000000 0.000000 
0.002349 0.933803 -0.000853 -0.559574 -0.756840 4.178057 5.202162 -0.137102 -0.717693 -3.492481 0.391096 -2.199811 3.732613 9.371796 6.064959 0.000000 0.000000 0.000000 -3.355114 0.448725 -4.724240 5.458708 -0.580272 2.546775 -4.809948 -13.165583 5.997016 0.000000 0.000000 0.000000 7.923164 -0.148210 -0.189146 -7.724070 2.705171 -18.084883 -2.955975 6.216284 27.536314 11.635564 -3.821474 -28.460263 0.000000 0.000000 0.000000 -26.988858 -10.889883 3.058955 -44.002300 0.073771 -6.583937 9.602195 -24.074642 -1.078741 0.000000 0.000000 0.000000 33.821352 0.156904 0.484916 49.695880 8.079004 -4.725807 -4.102005 23.799761 0.585749 0.000000 0.000000 0.000000 
0.001735 0.933910 -0.000373 -0.684021 -0.961655 4.556277 5.555956 -0.158873 -1.063855 -3.847787 0.424930 -2.208629 3.823137 9.553176 6.191552 0.000000 0.000000 0.000000 -2.963633 0.477407 -5.024147 5.038107 -0.523004 2.359937 -4.738597 -13.033670 6.035261 0.000000 0.000000 0.000000 7.945648 -0.147540 -0.276793 -7.826393 2.719571 -18.229459 -2.755617 6.341187 27.491205 11.807718 -3.859753 -28.746905 0.000000 0.000000 0.000000 -27.103398 -10.798122 2.999800 -43.430529 -0.307177 -6.354265 10.006545 -23.645347 -1.144296 0.000000 0.000000 0.000000 33.943405 0.208035 0.503460 49.339715 8.207502 -4.646890 -3.728522 24.330078 0.666734 0.000000 0.000000 0.000000 
0.000581 0.933834 0.000941 -0.782917 -1.123548 4.665605 5.696597 -0.165333 -1.197362 -3.803254 0.421811 -1.971748 3.927593 9.723662 6.148508 0.000000 0.000000 0.000000 -2.505597 0.482113 -5.021453 4.523130 -0.457910 2.280415 -4.693340 -12.928246 5.919625 0.000000 0.000000 0.000000 8.046983 -0.141579 -0.362780 -7.883310 2.730556 -18.260846 -2.691701 6.425472 27.597423 11.805335 -3.810927 -29.021306 0.000000 0.000000 0.000000 -27.285871 -11.044229 3.164812 -42.695720 -0.509442 -6.177787 9.971887 -22.984908 -1.107008 0.000000 0.000000 0.000000 34.271395 0.349584 0.590800 49.003679 8.476533 -4.541465 -3.775814 25.121961 0.686266 0.000000 0.000000 0.000000 
